<svg width="42" height="42" viewBox="0 0 42 42" fill="none" xmlns="http://www.w3.org/2000/svg">
<path d="M31.25 4.16667H39.5833C40.1359 4.16667 40.6658 4.38616 41.0565 4.77686C41.4472 5.16756 41.6667 5.69747 41.6667 6.25V39.5833C41.6667 40.1359 41.4472 40.6658 41.0565 41.0565C40.6658 41.4472 40.1359 41.6667 39.5833 41.6667H2.08333C1.5308 41.6667 1.00089 41.4472 0.610194 41.0565C0.219493 40.6658 0 40.1359 0 39.5833V6.25C0 5.69747 0.219493 5.16756 0.610194 4.77686C1.00089 4.38616 1.5308 4.16667 2.08333 4.16667H10.4167V0H14.5833V4.16667H27.0833V0H31.25V4.16667ZM37.5 20.8333H4.16667V37.5H37.5V20.8333ZM27.0833 8.33333H14.5833V12.5H10.4167V8.33333H4.16667V16.6667H37.5V8.33333H31.25V12.5H27.0833V8.33333ZM8.33333 25H12.5V29.1667H8.33333V25ZM18.75 25H22.9167V29.1667H18.75V25ZM29.1667 25H33.3333V29.1667H29.1667V25Z" fill="black"/>
</svg>
